<svg width="25" height="24" viewBox="0 0 25 24" fill="none" xmlns="http://www.w3.org/2000/svg">
<path d="M24.615 11.996C24.615 18.5906 19.2693 23.9363 12.6747 23.9363C6.08029 23.9363 0.734375 18.5906 0.734375 11.996C0.734375 5.40146 6.08029 0.0556641 12.6747 0.0556641C19.2693 0.0556641 24.615 5.40146 24.615 11.996Z" fill="#1BA27A"/>
<path d="M18.2789 6.07715H6.97266V8.8067H11.261V12.8186H13.9906V8.8067H18.2789V6.07715Z" fill="white"/>
<path d="M12.6521 13.2451C9.10465 13.2451 6.22859 12.6837 6.22859 11.991C6.22859 11.2985 9.10453 10.7369 12.6521 10.7369C16.1996 10.7369 19.0755 11.2985 19.0755 11.991C19.0755 12.6837 16.1996 13.2451 12.6521 13.2451ZM19.8646 12.2001C19.8646 11.3069 16.6355 10.583 12.6521 10.583C8.66883 10.583 5.43945 11.3069 5.43945 12.2001C5.43945 12.9866 7.94345 13.6419 11.2615 13.7871V19.5464H13.9909V13.7893C17.3345 13.6487 19.8646 12.9907 19.8646 12.2001Z" fill="white"/>
</svg>
