<svg width="24" height="24" viewBox="0 0 24 24" fill="none" xmlns="http://www.w3.org/2000/svg">
<mask id="mask0_548_1846" style="mask-type:alpha" maskUnits="userSpaceOnUse" x="0" y="0" width="24" height="24">
<path d="M0 0H23.6364V24H0V0Z" fill="white"/>
</mask>
<g mask="url(#mask0_548_1846)">
<path fill-rule="evenodd" clip-rule="evenodd" d="M11.8182 0C18.3453 0 23.6364 5.37245 23.6364 12C23.6364 18.627 18.3453 24 11.8182 24C5.29105 24 0 18.627 0 12C0 5.37245 5.29105 0 11.8182 0Z" fill="#2775CA"/>
</g>
<path fill-rule="evenodd" clip-rule="evenodd" d="M9.60367 20.3433C9.60367 20.6255 9.38598 20.7859 9.11711 20.7007C5.54386 19.5432 2.95312 16.1411 2.95312 12.1268C2.95312 8.11268 5.54386 4.7104 9.11711 3.55295C9.38598 3.46827 9.60367 3.62809 9.60367 3.91036V4.60718C9.60367 4.79509 9.46024 5.01627 9.28391 5.07749C6.45681 6.13159 4.43161 8.88927 4.43161 12.122C4.43161 15.3548 6.45681 18.113 9.28391 19.1666C9.46024 19.2326 9.60367 19.4489 9.60367 19.6374V20.3433Z" fill="white"/>
<path fill-rule="evenodd" clip-rule="evenodd" d="M12.5544 17.7502C12.5544 17.9575 12.3876 18.1269 12.1838 18.1269H11.4467C11.2429 18.1269 11.0761 17.9575 11.0761 17.7502V16.5646C9.46316 16.3435 8.67551 15.4256 8.46225 14.1787C8.42504 13.9667 8.59184 13.7739 8.80511 13.7739H9.64863C9.82469 13.7739 9.97309 13.9011 10.0102 14.0796C10.1678 14.8232 10.5895 15.3926 11.8824 15.3926C12.8371 15.3926 13.514 14.8514 13.514 14.0424C13.514 13.2326 13.1153 12.9269 11.7156 12.6914C9.64863 12.4091 8.67081 11.7737 8.67081 10.1267C8.67081 8.85619 9.6164 7.8681 11.0808 7.65619V6.49382C11.0808 6.28669 11.2477 6.11719 11.4514 6.11719H12.1885C12.3923 6.11719 12.5591 6.28669 12.5591 6.49382V7.68919C13.7502 7.90601 14.5056 8.5926 14.7514 9.73137C14.7976 9.94819 14.6308 10.1501 14.4131 10.1501H13.6343C13.4675 10.1501 13.3285 10.0371 13.2776 9.87251C13.0691 9.14814 12.5591 8.83764 11.6738 8.83764C10.696 8.83764 10.1908 9.31751 10.1908 9.99032C10.1908 10.7009 10.4783 11.0583 11.98 11.2799C14.0097 11.5622 15.0573 12.1503 15.0573 13.906C15.0573 15.2376 14.0839 16.3153 12.5591 16.5646V17.7502H12.5544Z" fill="white"/>
<path fill-rule="evenodd" clip-rule="evenodd" d="M14.5198 20.701C14.2512 20.7862 14.0332 20.6258 14.0332 20.3436V19.6473C14.0332 19.4402 14.1584 19.2473 14.353 19.1764C17.1801 18.1223 19.2053 15.3647 19.2053 12.1319C19.2053 8.89912 17.1801 6.14144 14.353 5.08735C14.1769 5.02135 14.0332 4.80508 14.0332 4.61649V3.92022C14.0332 3.63794 14.2512 3.47335 14.5198 3.56226C18.093 4.7204 20.6838 8.12253 20.6838 12.1367C20.6793 16.1413 18.093 19.5388 14.5198 20.701Z" fill="white"/>
</svg>
