<svg width="26" height="24" viewBox="0 0 26 24" fill="none" xmlns="http://www.w3.org/2000/svg">
<path d="M12.8213 0C19.5513 0 25.0059 5.37305 25.0059 12C25.0059 18.628 19.5513 24 12.8213 24C6.09243 24 0.636719 18.6275 0.636719 12C0.636719 5.37305 6.09243 0 12.8213 0Z" fill="#F5AC37"/>
<path d="M13.2708 12.8474H17.9008C17.9995 12.8474 18.0461 12.8474 18.0532 12.7199C18.0911 12.2561 18.0911 11.7895 18.0532 11.3251C18.0532 11.2349 18.0077 11.1977 17.9085 11.1977H8.69408C8.58003 11.1977 8.54932 11.2349 8.54932 11.3402V12.6751C8.54932 12.8474 8.54932 12.8474 8.73191 12.8474H13.2708V12.8474ZM17.5362 9.63757C17.5493 9.60355 17.5493 9.56629 17.5362 9.53281C17.4589 9.36703 17.3673 9.20881 17.2609 9.06031C17.1008 8.80651 16.9122 8.57268 16.6973 8.36262C16.5958 8.23572 16.4785 8.12178 16.3469 8.02512C15.6878 7.47269 14.9043 7.08173 14.0621 6.88517C13.6371 6.79121 13.2029 6.74639 12.7675 6.75017H8.67817C8.56412 6.75017 8.54877 6.79499 8.54877 6.89273V9.55495C8.54877 9.66728 8.54877 9.69752 8.69353 9.69752H17.4813C17.4813 9.69752 17.5576 9.6824 17.5729 9.63757H17.5356H17.5362ZM17.5362 14.4074C17.4068 14.3934 17.2763 14.3934 17.1469 14.4074H8.70175C8.5877 14.4074 8.54932 14.4074 8.54932 14.5576V17.1604C8.54932 17.2803 8.54932 17.3105 8.70175 17.3105H12.6008C12.7872 17.3246 12.9737 17.3116 13.1562 17.2732C13.7221 17.2333 14.2786 17.1123 14.8094 16.9131C15.0024 16.8472 15.1888 16.7613 15.3649 16.6582H15.418C16.3321 16.19 17.0745 15.4545 17.5428 14.5516C17.5428 14.5516 17.5959 14.4382 17.5362 14.4085V14.4074ZM7.01898 18.66V18.6152V16.8677V16.2753V14.5127C7.01898 14.415 7.01898 14.4004 6.89725 14.4004H5.24464C5.15307 14.4004 5.11523 14.4004 5.11523 14.2805V12.8555H6.8819C6.9806 12.8555 7.01898 12.8555 7.01898 12.728V11.3181C7.01898 11.2279 7.01898 11.2057 6.89725 11.2057H5.24464C5.15307 11.2057 5.11523 11.2057 5.11523 11.0859V9.7661C5.11523 9.68348 5.11523 9.66134 5.23696 9.66134H6.87422C6.98827 9.66134 7.01898 9.66134 7.01898 9.51877V5.47629C7.01898 5.35641 7.01898 5.32617 7.17141 5.32617H12.8826C13.2972 5.34237 13.7089 5.38719 14.1163 5.46117C14.9558 5.61399 15.7624 5.90938 16.4999 6.33112C16.989 6.61462 17.4391 6.95699 17.8399 7.35119C18.1415 7.65954 18.4135 7.99326 18.6547 8.34858C18.8943 8.70877 19.0934 9.09379 19.2497 9.49609C19.2688 9.60085 19.3708 9.6716 19.4772 9.65378H20.8403C21.0152 9.65378 21.0152 9.65377 21.0229 9.81902V11.0491C21.0229 11.169 20.9774 11.1993 20.8551 11.1993H19.804C19.6976 11.1993 19.6669 11.1993 19.6746 11.3343C19.7163 11.7911 19.7163 12.2496 19.6746 12.7064C19.6746 12.8339 19.6746 12.849 19.8199 12.849H21.0223C21.0755 12.9165 21.0223 12.984 21.0223 13.052C21.03 13.139 21.03 13.227 21.0223 13.3139V14.2217C21.0223 14.3491 20.9845 14.3869 20.8699 14.3869H19.4306C19.3303 14.368 19.2327 14.4312 19.2096 14.5295C18.8669 15.407 18.3186 16.1938 17.6102 16.8245C17.3514 17.054 17.0794 17.27 16.7954 17.4693C16.4905 17.6421 16.1939 17.8219 15.8814 17.9645C15.3062 18.2193 14.703 18.4073 14.084 18.5266C13.4962 18.6303 12.9002 18.6773 12.302 18.6692H7.01678V18.6616L7.01898 18.66Z" fill="#FEFEFD"/>
</svg>
